<?xml version="1.0" standalone="no"?>
<!DOCTYPE svg PUBLIC "-//W3C//DTD SVG 20010904//EN"
 "http://www.w3.org/TR/2001/REC-SVG-20010904/DTD/svg10.dtd">
<svg version="1.0" xmlns="http://www.w3.org/2000/svg"
 width="512pt" height="512pt" viewBox="0 0 2000 2000"
 preserveAspectRatio="xMidYMid meet">

<g transform="translate(0,2000) scale(0.100000,-0.100000)"
fill="#000000" stroke="none">
<path d="M9730 18860 c-356 -65 -682 -225 -1035 -506 -141 -112 -459 -431
-599 -599 -232 -278 -523 -690 -735 -1038 -39 -65 -377 -652 -750 -1305 -1715
-3001 -3064 -5334 -4851 -8397 -429 -735 -487 -839 -635 -1135 -335 -669 -530
-1258 -590 -1775 -19 -168 -19 -451 0 -599 103 -788 649 -1330 1620 -1611 481
-139 1004 -211 1690 -234 158 -5 956 -6 1930 -1 2137 11 6315 11 8450 0 1683
-8 2014 -5 2395 25 1753 140 2704 748 2845 1821 19 148 19 431 0 599 -60 520
-255 1106 -594 1783 -144 287 -224 431 -616 1102 -1645 2816 -3183 5477 -4885
8455 -361 633 -690 1204 -730 1270 -213 351 -494 749 -724 1025 -149 180 -465
497 -611 614 -327 261 -652 426 -980 496 -147 32 -449 37 -595 10z"/>
</g>
</svg>
